<svg xmlns="http://www.w3.org/2000/svg" width="126" height="110" viewBox="0 0 126 110">
    <g fill="none" fill-rule="evenodd">
        <g fill="#FFFEF5" fill-rule="nonzero">
            <g>
                <path d="M42.057 83.965l-2.482 21.314-7.568 1.486.93-8.067c-2.563.682-5.198 1.06-7.85 1.125l-1.063 8.464-7.428 1.42 2.476-21.315 7.693-1.474-.887 7.563 7.85-1.438.888-7.616 7.44-1.462zm15.816-2.058c4.687-1.053 8.207 1.372 8.31 5.751.306 7.696-5.206 14.406-12.84 15.63l-.27.055c-4.85.92-8.246-1.494-8.347-5.794-.193-7.821 4.994-14.192 13.147-15.642zm44.038-7.905c.29 1.486.078 7.418-.115 8.976l-1.045 10.69-7.525 1.396.001-.036c.02-.412.317-2.817.603-5.378l.049-.427.078-.65.06-.552c.263-2.38.508-4.56.508-5.007.018-.83-.043-1.564-.043-1.564h-.936l-4.306 3.862-1.316 10.763-7.525 1.413s.296-2.616.604-5.414l.048-.427.049-.433.048-.433c.272-2.509.52-4.867.52-5.33v-.348c-.005-.721-.037-1.223-.037-1.223h-.942l-3.992 3.857-1.328 10.672-7.507 1.456 2.325-19.853 7.229-1.36-.544 4.771h.314l5.182-5.715 6.68-1.281c.453 1.24.676 2.553.657 3.874v.313h.315l5.103-5.379zM14.005 60.99c1.7-.289 3.432-.361 5.151-.217l-.833 6.166h-.46l-2.216-.126h-.338c-1.208-.066-2.307-.12-2.415-.12l-.936.337c-.049 0-.888 4.812-.888 4.812l6.214-1.203-.399 4.94-6.25 1.203-.097.806-2.33 19.63L.7 98.662l2.415-20.455L0 78.81l.501-4.94 3.4-.673c.791-7.532 3.86-10.799 10.104-12.206zm42.419 25.959l-1.552.667c-1.534 1.577-2.41 4.434-2.35 6.943.055 2.19 1.04 3.706 1.975 3.706l1.872-.668c1.226-1.282 2.09-4.434 2.03-6.937-.055-2.19-1.027-3.711-1.975-3.711zm65.996-16.863l-.792 7.905-7.524 5.306-.496-3.393 4.566-3.098v-.313l-4.463-.169-.936.313c-.574.933-.628 5.439-.483 7.923l.109 1.871h.603l7.918-5.45-.815 5.69-8.316 5.175-6.341 1.052s-.864-8.211.175-14.131c.096-.554.211-1.095.338-1.576.127-.482.266-.933.423-1.354.943-1.929 2.729-3.314 4.837-3.754 3.57-.728 6.764-1.24 11.197-1.997zM34.2 66.073l2.518.253-1.087 6.918c-2.469.567-4.998.83-7.53.782l-.858 8.332-7.561 1.474 1.709-14.649 7.156-1.341-.513 3.387h.314l.738-.769c1.6-1.659 3.214-3.255 5.114-4.387zm16.668-3.2c4.692-1.047 8.207 1.371 8.316 5.751.095 2.781-.55 5.538-1.873 7.99l-6.643 1.293-.163-.241c.643-1.94.954-3.974.918-6.016-.054-2.22-1.026-3.73-1.98-4.025l-1.873.674c-1.285 2.09-1.986 4.485-2.029 6.936-.024 1.132.214 2.254.695 3.28l-.06.204-8.16 1.558c-.153-.563-.236-1.143-.247-1.727-.187-7.82 5.314-14.221 13.099-15.677zm44.4-7.737c.105.798.15 1.602.132 2.407v.433c-.006 1.973-.12 4.385-.23 5.673-.09 1.035-.374 3.988-.56 5.847l-7.501 1.426c.133-1.137.392-3.297.47-3.946.049-.403.115-.867.115-1.336v-.571c.049-1.095.055-2.148.067-2.54v-.204h-.936l-3.992 3.85-.858 5.734-7.44 1.401c.12-1.3.32-3.567.356-4.27.028-.308.034-.747.036-1.223v-3.013h-.935l-3.986 4.157-.64 5.324-7.47 1.432 1.956-14.559 6.872-1.317-.477 4.403h.314l4.771-5.288 7.332-1.401c.106 1.036.321 3.506.352 3.866l.004.044h.32l4.74-4.915zM44.388 37.75L41.88 60.16l-5.688 1.149c-2.549-3.159-4.65-6.84-6.547-10.228l-1.063 11.63-6.679 1.245 2.754-22.446 6.293-1.203c1.866 3.363 3.865 6.912 5.622 9.445v.132l.978-10.828 6.837-1.306zm14.935-1.907c4.783-1.065 8.346 1.396 8.454 5.83.194 7.953-5.042 14.426-13.292 15.906-4.747 1.046-8.31-1.402-8.418-5.842-.17-7.929 5.387-14.438 13.256-15.894zm21.759-5.077l-.514 4.072 6.698-1.287-.496 4.915-6.703 1.287-.284 1.962c-.304 2.029-.359 4.087-.163 6.13l.604-.319 4.831-3.483.097 3.976-5.755 5.054-6.921 1.287s-.52-.601-.604-3.61c-.014-1.33.063-2.661.23-3.982l.042-.379c.326-2.761.845-5.282.845-5.282l-2.778.535.49-4.909 3.08-.601.5-4.067 6.8-1.3zm-23.179 9.896l-1.896.686c-1.305 2.116-2.016 4.543-2.06 7.026.061 2.533 1.058 4.073 2.326 4.073l1.582-.373c1.35-2.209 2.061-4.747 2.053-7.333-.054-2.22-1.044-3.784-2.005-4.08zm49.612-13.109l-.417 6.618-8.78 6.737-.484-3.435 4.554-3.387v-.318l-4.39.222-.93.367c-.575.969-.665 5.36-.538 7.863l.096 1.877h.604l10.146-6.66-.181 5.12-10.128 6.924-7.355 1.528s-1.607-11.827 1.334-16.94c1.444-2.606 4.143-4.47 8.781-5.674 2.523-.564 5.102-.846 7.688-.842zm17.592-3.928l-.52 5.973c-2.373-.138-6.697-.336-7.3.103l-.097.481c.567 1.366 8.231 6.034 8.762 10.125.363 2.797-1.316 6.016-6.027 5.113-.784-.193-2.399-.734-4.084-1.324l-.801-.282c-2.401-.85-4.705-1.702-4.735-1.702l.127-5.18c.343.164 1.886 1.063 3.578 1.97l.465.247.467.244c.234.121.466.24.696.354.94.459 1.909.86 2.898 1.204l.2-.373c-1.13-1.077-7.066-4.765-7.29-9.849-.169-3.26 2.144-5.12 7.187-6.322 2.113-.547 4.29-.81 6.474-.782zm-92.798-7.707c.453 1.15 1.244 4.26 1.208 5.318v2.286c-.12 2.052-.507 4.753-1.407 12.754l-7.56 1.432c.175-1.427.503-4.22.78-6.9l.065-.64c.3-2.97.516-5.648.362-5.954l-.646-.601-2.47.463-2.416.493-.44 3.904-.913 8.02c-.525 4.085-2.663 6.641-6.42 7.351-2.003.338-4.058.188-5.99-.439l1.431-5.667 2.845.554.604-.325.537-4.71.833-7.22-3.442.704-.145-6.34c1.208-.344 3.744-.861 6.643-1.463l.652-.132 3.376-.656.683-.126c1.824-.367 3.617-.68 5.218-.969 2.953-.535 5.465-.968 6.612-1.137zm26.446-5.192c5.314-1.082 7.223-.168 7.331 4.212-.066 3.043-.308 6.08-.724 9.096l2.506-.373-.761 5.89-18.794 3.609.683-5.872 9.493-1.804c.382-2.185.54-4.402.471-6.618l-.03-1.251-.954-.295-8.135 1.45-.145-5.95c2.96-.934 5.989-1.634 9.059-2.094zm20.509 6.407l-1.226 10.354-7.58 1.45 1.3-10.36 7.506-1.444zM46.586 13.11l-.193 1.528-1.57 12.387-7.815 1.437.157-1.209h-.006l1.618-12.64 7.809-1.503zm37.702-7.274c6.287-1.269 8.22.343 7.743 6.618-.121 2.334-.496 5.168-.882 8.043l-.212 1.522c-.138 1.041-.277 2.076-.404 3.087l-7.591 1.45 1.044-9.23c.175-1.555.242-3.12.2-4.685l-.64-.301-11.892 2.153-.175-6.112c3.437-.74 8.117-1.588 12.81-2.545zM115.535 0l.344 1.871.06 2.503c.11 4.373-.682 10.347-1.89 12.88-1.491 3.164-4.897 5.125-8.968 5.853-3.51.708-7.118.797-10.659.265l1.751-5.649c.91-.021 2.166-.028 3.507-.03h2.068c2.645-.012 5.084-.048 5.435-.235l.604-.33c.177-.76.337-2.505.437-4.268l.029-.557c.104-2.126.112-4.13-.056-4.29h-.32l-3.074 2.575.369 2.184-7.199 1.426L96.421 3.67l7.168-1.384.447 4.247 5.212-5.33L115.535 0z" transform="translate(-40 -40) translate(40 40)"/>
            </g>
        </g>
    </g>
</svg>
